<svg xmlns="http://www.w3.org/2000/svg" viewBox="0 0 64 64" width="64" height="64">
  <defs>
    <radialGradient id="g" cx="32" cy="26" r="30" gradientUnits="userSpaceOnUse">
      <stop offset="0" stop-color="#ff7cab"/>
      <stop offset="1" stop-color="#ff4d8d"/>
    </radialGradient>
  </defs>
  <rect width="64" height="64" rx="18" fill="#0b0f19"/>
  <g fill="url(#g)">
    <path d="M32 14c7 0 12 6 12 12 0 7-6 14-12 14S20 33 20 26c0-6 5-12 12-12Z"/>
    <path d="M18 30c6-4 14-3 18 2 5 6 2 16-6 20-8 4-17 1-20-7-2-6 2-12 8-15Z" opacity="0.92"/>
    <path d="M46 30c6 3 10 9 8 15-3 8-12 11-20 7-8-4-11-14-6-20 4-5 12-6 18-2Z" opacity="0.92"/>
  </g>
  <circle cx="32" cy="34" r="5" fill="#ffe6f0" opacity="0.92"/>
</svg>
